# xmcd
#
# Track frame offsets: 
#        150
#        16870
#        54685
#        81358
#        101873
#        121026
#        139951
#        150451
#        175233
#        217823
#        240785
#
# Disc length: 3504 seconds
#
# Revision: 3
# Processed by: cddbd v1.5.2PL0 Copyright (c) Steve Scherf et al.
# Submitted via: ExactAudioCopy v1.0b4
#
DISCID=850dae0b
DTITLE=Snowy White and The White Flames - Little Wing
DYEAR=2004
DGENRE=Blues Rock
TTITLE0=Discoveri
TTITLE1=Long Distance Loving
TTITLE2=I'll Be Moving On
TTITLE3=The More You Live
TTITLE4=Little Wing
TTITLE5=That's When I'll Stop Loving You
TTITLE6=Terpisah
TTITLE7=The First Move
TTITLE8=Like The Sun
TTITLE9=That Ain't Right
TTITLE10=Melting
EXTD=
EXTT0=
EXTT1=
EXTT2=
EXTT3=
EXTT4=
EXTT5=
EXTT6=
EXTT7=
EXTT8=
EXTT9=
EXTT10=
PLAYORDER=
